<?xml version="1.0" encoding="UTF-8"?>
<svg width="32px" height="21px" viewBox="0 0 32 21" version="1.1" xmlns="http://www.w3.org/2000/svg" xmlns:xlink="http://www.w3.org/1999/xlink">
    <!-- Generator: Sketch 49 (51002) - http://www.bohemiancoding.com/sketch -->
    <title>mark-white</title>
    <desc>Created with Sketch.</desc>
    <defs></defs>
    <g id="Page-1" stroke="none" stroke-width="1" fill="none" fill-rule="evenodd" fill-opacity="0.5">
        <g id="Deck-Page" transform="translate(-41.000000, -24.000000)" fill="#FFFFFF">
            <path d="M54.2550517,36.8125 L47.09375,36.8125 C43.7282648,36.8125 41,34.0842352 41,30.71875 C41,27.3532648 43.7282648,24.625 47.09375,24.625 L55.448602,24.625 C56.7947961,24.625 57.886102,25.7163059 57.886102,27.0625 C57.886102,28.4086941 56.7947961,29.5 55.448602,29.5 L47.0433506,29.5 C46.3702535,29.5 45.8246006,30.045653 45.8246006,30.71875 C45.8246006,31.391847 46.3702535,31.9375 47.0433506,31.9375 L54.2046523,31.9375 C57.5701374,31.9375 60.2984023,34.6657648 60.2984023,38.03125 C60.2984023,41.3967352 57.5701374,44.125 54.2046523,44.125 L43.4375,44.125 C42.0913059,44.125 41,43.0336941 41,41.6875 C41,40.3413059 42.0913059,39.25 43.4375,39.25 L54.2550517,39.25 C54.9281487,39.25 55.4738017,38.704347 55.4738017,38.03125 C55.4738017,37.358153 54.9281487,36.8125 54.2550517,36.8125 Z M59.4448027,44.125 C61.0909927,43.0288157 62.2675675,41.2814088 62.6078596,39.25 L66.6029347,39.25 C67.2750172,39.25 67.8198477,38.704347 67.8198477,38.03125 L67.8198477,30.71875 C67.8198477,30.045653 67.2750172,29.5 66.6029347,29.5 L59.3453947,29.5 C59.923477,28.8531405 60.2749867,27.998932 60.2749867,27.0625 C60.2749867,26.126068 59.923477,25.2718595 59.3453947,24.625 L67.8198477,24.625 C70.5081778,24.625 72.6875,26.8076118 72.6875,29.5 L72.6875,39.25 C72.6875,41.9423882 70.5081778,44.125 67.8198477,44.125 L59.4448027,44.125 Z" id="mark-white"></path>
        </g>
    </g>
</svg>